HIERARCHY
ROOT hip
{
  OFFSET 0 0 0
  CHANNELS 6 Xposition Yposition Zposition Zrotation Yrotation Xrotation
  JOINT abdomen
  {
    OFFSET 0 20.6881 -0.73152
    CHANNELS 3 Zrotation Xrotation Yrotation
    JOINT chest
    {
      OFFSET 0 11.7043 -0.48768
      CHANNELS 3 Zrotation Xrotation Yrotation
      JOINT neck
      {
        OFFSET 0 22.1894 -2.19456
        CHANNELS 3 Zrotation Xrotation Yrotation
        JOINT head
        {
          OFFSET -0.24384 7.07133 1.2192
          CHANNELS 3 Zrotation Xrotation Yrotation
          JOINT leftEye
          {
            OFFSET 4.14528 8.04674 8.04672
            CHANNELS 3 Zrotation Xrotation Yrotation
            End Site
            {
              OFFSET 1 0 0
            }
          }
          JOINT rightEye
          {
            OFFSET -3.6576 8.04674 8.04672
            CHANNELS 3 Zrotation Xrotation Yrotation
            End Site
            {
              OFFSET 1 0 0
            }
          }
        }
      }
      JOINT rCollar
      {
        OFFSET -2.68224 19.2634 -4.8768
        CHANNELS 3 Zrotation Xrotation Yrotation
        JOINT rShldr
        {
          OFFSET -8.77824 -1.95073 1.46304
          CHANNELS 3 Zrotation Xrotation Yrotation
          JOINT rForeArm
          {
            OFFSET -28.1742 -1.7115 0.48768
            CHANNELS 3 Zrotation Xrotation Yrotation
            JOINT rHand
            {
              OFFSET -22.5879 0.773209 7.07136
              CHANNELS 3 Zrotation Xrotation Yrotation
              JOINT rThumb1
              {
                OFFSET -1.2192 -0.487915 3.41376
                CHANNELS 3 Zrotation Xrotation Yrotation
                JOINT rThumb2
                {
                  OFFSET -3.37035 -0.52449 3.41376
                  CHANNELS 3 Zrotation Xrotation Yrotation
                  End Site
                  {
                    OFFSET -1.78271 -1.18214 1.43049
                  }
                }
              }
              JOINT rIndex1
              {
                OFFSET -7.75947 0.938293 5.60832
                CHANNELS 3 Zrotation Xrotation Yrotation
                JOINT rIndex2
                {
                  OFFSET -2.54057 -0.884171 1.56538
                  CHANNELS 3 Zrotation Xrotation Yrotation
                  End Site
                  {
                    OFFSET -1.62519 -0.234802 1.16502
                  }
                }
              }
              JOINT rMid1
              {
                OFFSET -8.24714 1.18213 3.41376
                CHANNELS 3 Zrotation Xrotation Yrotation
                JOINT rMid2
                {
                  OFFSET -3.10165 -0.590103 1.0647
                  CHANNELS 3 Zrotation Xrotation Yrotation
                  End Site
                  {
                    OFFSET -2.48547 -0.328903 0.83742
                  }
                }
              }
              JOINT rRing1
              {
                OFFSET -8.82822 0.546677 1.51678
                CHANNELS 3 Zrotation Xrotation Yrotation
                JOINT rRing2
                {
                  OFFSET -2.60934 -0.819778 -0.0198488
                  CHANNELS 3 Zrotation Xrotation Yrotation
                  End Site
                  {
                    OFFSET -2.33842 -0.294052 0.168128
                  }
                }
              }
              JOINT rPinky1
              {
                OFFSET -8.27202 -0.0477905 -0.4584
                CHANNELS 3 Zrotation Xrotation Yrotation
                JOINT rPinky2
                {
                  OFFSET -1.82734 -0.647385 -0.700984
                  CHANNELS 3 Zrotation Xrotation Yrotation
                  End Site
                  {
                    OFFSET -1.69225 -0.51767 -0.607171
                  }
                }
              }
            }
          }
        }
      }
      JOINT lCollar
      {
        OFFSET 2.68224 19.2634 -4.8768
        CHANNELS 3 Zrotation Xrotation Yrotation
        JOINT lShldr
        {
          OFFSET 8.77824 -1.95073 1.46304
          CHANNELS 3 Zrotation Xrotation Yrotation
          JOINT lForeArm
          {
            OFFSET 28.1742 -1.7115 0.48768
            CHANNELS 3 Zrotation Xrotation Yrotation
            JOINT lHand
            {
              OFFSET 22.5879 0.773209 7.07136
              CHANNELS 3 Zrotation Xrotation Yrotation
              JOINT lThumb1
              {
                OFFSET 1.2192 -0.487915 3.41376
                CHANNELS 3 Zrotation Xrotation Yrotation
                JOINT lThumb2
                {
                  OFFSET 3.37035 -0.52449 3.41376
                  CHANNELS 3 Zrotation Xrotation Yrotation
                  End Site
                  {
                    OFFSET 1.78271 -1.18214 1.43049
                  }
                }
              }
              JOINT lIndex1
              {
                OFFSET 7.75947 0.938293 5.60832
                CHANNELS 3 Zrotation Xrotation Yrotation
                JOINT lIndex2
                {
                  OFFSET 2.54057 -0.884171 1.56538
                  CHANNELS 3 Zrotation Xrotation Yrotation
                  End Site
                  {
                    OFFSET 1.62519 -0.234802 1.16502
                  }
                }
              }
              JOINT lMid1
              {
                OFFSET 8.24714 1.18213 3.41376
                CHANNELS 3 Zrotation Xrotation Yrotation
                JOINT lMid2
                {
                  OFFSET 3.10165 -0.590103 1.0647
                  CHANNELS 3 Zrotation Xrotation Yrotation
                  End Site
                  {
                    OFFSET 2.48547 -0.328903 0.83742
                  }
                }
              }
              JOINT lRing1
              {
                OFFSET 8.82822 0.546677 1.51678
                CHANNELS 3 Zrotation Xrotation Yrotation
                JOINT lRing2
                {
                  OFFSET 2.60934 -0.819778 -0.0198488
                  CHANNELS 3 Zrotation Xrotation Yrotation
                  End Site
                  {
                    OFFSET 2.33842 -0.294052 0.168128
                  }
                }
              }
              JOINT lPinky1
              {
                OFFSET 8.27202 -0.0477905 -0.4584
                CHANNELS 3 Zrotation Xrotation Yrotation
                JOINT lPinky2
                {
                  OFFSET 1.82734 -0.647385 -0.700984
                  CHANNELS 3 Zrotation Xrotation Yrotation
                  End Site
                  {
                    OFFSET 1.69225 -0.51767 -0.607171
                  }
                }
              }
            }
          }
        }
      }
    }
  }
  JOINT rButtock
  {
    OFFSET -8.77824 4.35084 1.2192
    CHANNELS 3 Zrotation Xrotation Yrotation
    JOINT rThigh
    {
      OFFSET 0 -1.70687 -2.19456
      CHANNELS 3 Zrotation Xrotation Yrotation
      JOINT rShin
      {
        OFFSET 0 -36.8199 0.73152
        CHANNELS 3 Zrotation Xrotation Yrotation
        JOINT rFoot
        {
          OFFSET 0.73152 -45.1104 -5.12064
          CHANNELS 3 Zrotation Xrotation Yrotation
          End Site
          {
            OFFSET -1.1221 -3.69964 12.103
          }
        }
      }
    }
  }
  JOINT lButtock
  {
    OFFSET 8.77824 4.35084 1.2192
    CHANNELS 3 Zrotation Xrotation Yrotation
    JOINT lThigh
    {
      OFFSET 0 -1.70687 -2.19456
      CHANNELS 3 Zrotation Xrotation Yrotation
      JOINT lShin
      {
        OFFSET 0 -36.8199 0.73152
        CHANNELS 3 Zrotation Xrotation Yrotation
        JOINT lFoot
        {
          OFFSET -0.73152 -45.1104 -5.12064
          CHANNELS 3 Zrotation Xrotation Yrotation
          End Site
          {
            OFFSET 1.1221 -3.69964 12.103
          }
        }
      }
    }
  }
}
MOTION
Frames:	4
Frame Time:	0.00833333
9.47961 80.5098 -150.125 -181.129 -15.9826 -179.365 3.40698 11.4846 -5.23885 3.15032 -6.65998 -1.22909 -6.48465 0.623701 -5.79054 5.01302 -15.7782 -9.11507 -0.0 0.0 0.0 -0.0 0.0 0.0 1.14332e-14 -9.46155e-14 -5.64399e-13 75.7203 4.56659 -11.3379 -19.6324 -12.5565 37.7951 -0.011642 -3.07911 -0.433162 2.77015e-09 -9.20215e-09 -2.57924e-09 4.80057e-09 -1.59404e-08 -4.4697e-09 2.77016e-09 -9.20215e-09 -2.57925e-09 7.73091 5.47488 0.417314 2.77015e-09 -9.20215e-09 -2.57923e-09 2.90554 0.965183 0.102902 2.77016e-09 -9.20215e-09 -2.57924e-09 10.2786 0.731801 0.0259123 2.77015e-09 -9.20215e-09 -2.57923e-09 2.22167 -0.733487 -0.20892 1.11794e-14 -9.46289e-14 -5.64797e-13 -84.5819 13.5367 11.101 20.7795 -14.0249 -40.6077 0.0772012 7.90204 -1.11773 2.78639e-09 6.11125e-09 -8.09146e-10 4.8143e-09 1.05742e-08 -1.42971e-09 2.78639e-09 6.11125e-09 -8.09136e-10 -7.73091 5.47488 -0.417314 2.78639e-09 6.11125e-09 -8.09143e-10 -2.90554 0.965183 -0.102902 2.78639e-09 6.11125e-09 -8.09146e-10 -10.2786 0.731801 -0.0259123 2.7864e-09 6.11125e-09 -8.09155e-10 -2.22167 -0.733487 0.20892 -2.03217e-16 0.0 -3.88251e-19 -3.62158 -25.5279 9.78302 -0.137755 32.8308 0.572917 0.312978 -6.48424 2.52529 2.03217e-16 0.0 3.88251e-19 -1.69519 -24.8213 -8.65719 0.311568 36.2166 -0.441812 -4.08711 -12.2433 -14.019
9.32928 80.5479 -150.23 -181.181 -15.7155 -179.335 3.27702 11.1929 -5.2749 3.18206 -6.62525 -1.23941 -6.44172 0.402199 -5.7438 4.98714 -15.5994 -9.02087 -0.0 0.0 0.0 -0.0 0.0 0.0 1.87802e-14 -1.25773e-13 -6.4576e-13 76.0318 4.8091 -11.194 -19.608 -12.5267 37.7368 -0.0100864 -2.85631 -0.401768 3.00104e-09 -1.00015e-08 -2.70269e-09 5.20015e-09 -1.73228e-08 -4.68374e-09 3.00105e-09 -1.00015e-08 -2.7027e-09 7.73091 5.47488 0.417314 3.00104e-09 -1.00015e-08 -2.70268e-09 2.90554 0.965183 0.102902 3.00105e-09 -1.00015e-08 -2.70269e-09 10.2786 0.731801 0.0259123 3.00104e-09 -1.00015e-08 -2.70268e-09 2.22167 -0.733487 -0.20892 1.85445e-14 -1.2579e-13 -6.46156e-13 -84.6578 14.0079 10.8721 20.5134 -13.6717 -39.941 0.0778839 7.93484 -1.12243 2.75002e-09 6.10964e-09 -1.0048e-09 4.74962e-09 1.05696e-08 -1.76818e-09 2.75002e-09 6.10964e-09 -1.00479e-09 -7.73091 5.47488 -0.417314 2.75002e-09 6.10965e-09 -1.00479e-09 -2.90554 0.965183 -0.102902 2.75002e-09 6.10964e-09 -1.0048e-09 -10.2786 0.731801 -0.0259123 2.75003e-09 6.10965e-09 -1.00481e-09 -2.22167 -0.733487 0.20892 -2.03217e-16 0.0 -3.88251e-19 -3.70979 -25.4486 9.84759 -0.136689 32.7408 0.567801 0.336144 -6.64266 2.61232 2.03217e-16 0.0 3.88251e-19 -1.74526 -24.6079 -8.54515 0.308916 36.0573 -0.438807 -4.07557 -12.2754 -13.9669
9.18861 80.584 -150.33 -181.216 -15.4595 -179.298 3.15653 10.9034 -5.30829 3.21432 -6.59453 -1.24869 -6.40485 0.177884 -5.70336 4.96748 -15.4277 -8.93642 -0.0 0.0 0.0 -0.0 0.0 0.0 3.2931e-14 -1.72537e-13 -7.59034e-13 76.3363 5.08267 -11.0665 -19.5791 -12.4914 37.668 -0.00875911 -2.65703 -0.373697 3.1826e-09 -1.06899e-08 -2.75842e-09 5.514e-09 -1.85117e-08 -4.78035e-09 3.18261e-09 -1.06899e-08 -2.75843e-09 7.73091 5.47488 0.417314 3.1826e-09 -1.06899e-08 -2.75842e-09 2.90554 0.965183 0.102902 3.18261e-09 -1.06899e-08 -2.75842e-09 10.2786 0.731801 0.0259123 3.1826e-09 -1.06899e-08 -2.75841e-09 2.22167 -0.733487 -0.20892 3.27572e-14 -1.72554e-13 -7.59401e-13 -84.7141 14.475 10.6092 20.2411 -13.3185 -39.2671 0.079356 8.0056 -1.13258 2.55451e-09 5.76415e-09 -1.21441e-09 4.40938e-09 9.96911e-09 -2.12927e-09 2.55451e-09 5.76415e-09 -1.2144e-09 -7.73091 5.47488 -0.417314 2.55451e-09 5.76415e-09 -1.21441e-09 -2.90554 0.965183 -0.102902 2.55451e-09 5.76415e-09 -1.21441e-09 -10.2786 0.731801 -0.0259123 2.55452e-09 5.76415e-09 -1.21442e-09 -2.22167 -0.733487 0.20892 -2.03217e-16 0.0 -3.88251e-19 -3.7888 -25.3868 9.91902 -0.135763 32.6612 0.563193 0.354881 -6.80269 2.67171 2.03217e-16 0.0 3.88251e-19 -1.78894 -24.4213 -8.42523 0.306315 35.901 -0.435885 -4.06581 -12.2835 -13.9386
9.06018 80.6183 -150.422 -181.228 -15.2079 -179.253 3.05243 10.6193 -5.33531 3.24565 -6.57008 -1.25591 -6.37193 -0.0472188 -5.66726 4.9523 -15.2568 -8.85904 -0.0 0.0 0.0 -0.0 0.0 0.0 4.68422e-14 -2.13139e-13 -8.49349e-13 76.6325 5.37808 -10.9475 -19.5439 -12.4485 37.5841 -0.00748977 -2.46052 -0.34602 3.23326e-09 -1.09756e-08 -2.72261e-09 5.6011e-09 -1.90033e-08 -4.71831e-09 3.23326e-09 -1.09756e-08 -2.72262e-09 7.73091 5.47488 0.417314 3.23326e-09 -1.09756e-08 -2.72261e-09 2.90554 0.965183 0.102902 3.23327e-09 -1.09756e-08 -2.72261e-09 10.2786 0.731801 0.0259123 3.23325e-09 -1.09756e-08 -2.7226e-09 2.22167 -0.733487 -0.20892 4.67435e-14 -2.13155e-13 -8.49677e-13 -84.7501 14.9269 10.3183 19.9648 -12.9679 -38.5931 0.081683 8.12079 -1.1491 2.26989e-09 5.21596e-09 -1.37219e-09 3.9154e-09 9.01804e-09 -2.39968e-09 2.26989e-09 5.21596e-09 -1.37218e-09 -7.73091 5.47488 -0.417314 2.26989e-09 5.21596e-09 -1.37219e-09 -2.90554 0.965183 -0.102902 2.26989e-09 5.21596e-09 -1.37219e-09 -10.2786 0.731801 -0.0259123 2.2699e-09 5.21596e-09 -1.3722e-09 -2.22167 -0.733487 0.20892 -2.03217e-16 0.0 -3.88251e-19 -3.85001 -25.3432 9.97912 -0.135182 32.6012 0.559366 0.367971 -6.96705 2.69747 2.03217e-16 0.0 3.88251e-19 -1.8109 -24.2617 -8.28597 0.303882 35.7554 -0.433264 -4.05772 -12.2709 -13.9314
